G04 #@! TF.GenerationSoftware,KiCad,Pcbnew,(6.0.7-1)-1*
G04 #@! TF.CreationDate,2022-08-10T01:26:54+02:00*
G04 #@! TF.ProjectId,soic8_3.9x4.9_to_dip,736f6963-385f-4332-9e39-78342e395f74,rev?*
G04 #@! TF.SameCoordinates,Original*
G04 #@! TF.FileFunction,Copper,L1,Top*
G04 #@! TF.FilePolarity,Positive*
%FSLAX46Y46*%
G04 Gerber Fmt 4.6, Leading zero omitted, Abs format (unit mm)*
G04 Created by KiCad (PCBNEW (6.0.7-1)-1) date 2022-08-10 01:26:54*
%MOMM*%
%LPD*%
G01*
G04 APERTURE LIST*
G04 Aperture macros list*
%AMRoundRect*
0 Rectangle with rounded corners*
0 $1 Rounding radius*
0 $2 $3 $4 $5 $6 $7 $8 $9 X,Y pos of 4 corners*
0 Add a 4 corners polygon primitive as box body*
4,1,4,$2,$3,$4,$5,$6,$7,$8,$9,$2,$3,0*
0 Add four circle primitives for the rounded corners*
1,1,$1+$1,$2,$3*
1,1,$1+$1,$4,$5*
1,1,$1+$1,$6,$7*
1,1,$1+$1,$8,$9*
0 Add four rect primitives between the rounded corners*
20,1,$1+$1,$2,$3,$4,$5,0*
20,1,$1+$1,$4,$5,$6,$7,0*
20,1,$1+$1,$6,$7,$8,$9,0*
20,1,$1+$1,$8,$9,$2,$3,0*%
G04 Aperture macros list end*
G04 #@! TA.AperFunction,ComponentPad*
%ADD10C,1.600000*%
G04 #@! TD*
G04 #@! TA.AperFunction,ComponentPad*
%ADD11O,1.600000X1.600000*%
G04 #@! TD*
G04 #@! TA.AperFunction,SMDPad,CuDef*
%ADD12RoundRect,0.150000X-0.150000X0.825000X-0.150000X-0.825000X0.150000X-0.825000X0.150000X0.825000X0*%
G04 #@! TD*
G04 #@! TA.AperFunction,ViaPad*
%ADD13C,0.800000*%
G04 #@! TD*
G04 #@! TA.AperFunction,Conductor*
%ADD14C,0.250000*%
G04 #@! TD*
G04 APERTURE END LIST*
D10*
X106680000Y-88900000D03*
D11*
X106680000Y-91440000D03*
X106680000Y-93980000D03*
X106680000Y-96520000D03*
X114300000Y-96520000D03*
X114300000Y-93980000D03*
X114300000Y-91440000D03*
X114300000Y-88900000D03*
D12*
X112395000Y-90235000D03*
X111125000Y-90235000D03*
X109855000Y-90235000D03*
X108585000Y-90235000D03*
X108585000Y-95185000D03*
X109855000Y-95185000D03*
X111125000Y-95185000D03*
X112395000Y-95185000D03*
D13*
X108686600Y-91973400D03*
X112242600Y-93497400D03*
D14*
X111277400Y-88468200D02*
X112395000Y-89585800D01*
X106680000Y-88900000D02*
X107111800Y-88468200D01*
X107111800Y-88468200D02*
X111277400Y-88468200D01*
X112395000Y-89585800D02*
X112395000Y-90235000D01*
X111125000Y-89585800D02*
X111125000Y-90235000D01*
X110464200Y-88925000D02*
X111125000Y-89585800D01*
X107950000Y-90170000D02*
X107950000Y-89203249D01*
X106680000Y-91440000D02*
X107950000Y-90170000D01*
X107950000Y-89203249D02*
X108228249Y-88925000D01*
X108228249Y-88925000D02*
X110464200Y-88925000D01*
X108839000Y-91973400D02*
X108686600Y-91973400D01*
X109855000Y-90957400D02*
X108839000Y-91973400D01*
X109855000Y-90235000D02*
X109855000Y-90957400D01*
X107950000Y-95250000D02*
X107950000Y-91541600D01*
X107950000Y-91541600D02*
X108585000Y-90906600D01*
X108585000Y-90906600D02*
X108585000Y-90235000D01*
X106680000Y-96520000D02*
X107950000Y-95250000D01*
X108585000Y-95808800D02*
X108585000Y-95185000D01*
X114300000Y-96520000D02*
X113500001Y-97319999D01*
X110096199Y-97319999D02*
X108585000Y-95808800D01*
X113500001Y-97319999D02*
X110096199Y-97319999D01*
X109855000Y-95859600D02*
X110515400Y-96520000D01*
X113030000Y-95250000D02*
X114300000Y-93980000D01*
X113030000Y-96196751D02*
X113030000Y-95250000D01*
X112706751Y-96520000D02*
X113030000Y-96196751D01*
X109855000Y-95185000D02*
X109855000Y-95859600D01*
X110515400Y-96520000D02*
X112706751Y-96520000D01*
X112166400Y-93497400D02*
X112242600Y-93497400D01*
X111125000Y-95185000D02*
X111125000Y-94538800D01*
X111125000Y-94538800D02*
X112166400Y-93497400D01*
X114300000Y-88900000D02*
X113019520Y-90180480D01*
X113019520Y-93914280D02*
X112395000Y-94538800D01*
X112395000Y-94538800D02*
X112395000Y-95185000D01*
X113019520Y-90180480D02*
X113019520Y-93914280D01*
M02*
